<svg xmlns="http://www.w3.org/2000/svg" xmlns:xlink="http://www.w3.org/1999/xlink" width="780" zoomAndPan="magnify" viewBox="0 0 585 585.000005" height="780" preserveAspectRatio="xMidYMid meet" version="1.0"><defs><clipPath id="67abf43a82"><path d="M 0.5 0 L 584.039062 0 L 584.039062 583.539062 L 0.5 583.539062 Z M 0.5 0 " clip-rule="nonzero"/></clipPath><clipPath id="93b6b0f300"><path d="M 292.269531 0 C 131.128906 0 0.5 130.628906 0.5 291.769531 C 0.5 452.910156 131.128906 583.539062 292.269531 583.539062 C 453.410156 583.539062 584.039062 452.910156 584.039062 291.769531 C 584.039062 130.628906 453.410156 0 292.269531 0 Z M 292.269531 0 " clip-rule="nonzero"/></clipPath><clipPath id="5031622e69"><path d="M 0.5 0 L 584.039062 0 L 584.039062 583.539062 L 0.5 583.539062 Z M 0.5 0 " clip-rule="nonzero"/></clipPath><clipPath id="b217c98d2b"><path d="M 292.269531 0 C 131.128906 0 0.5 130.628906 0.5 291.769531 C 0.5 452.910156 131.128906 583.539062 292.269531 583.539062 C 453.410156 583.539062 584.039062 452.910156 584.039062 291.769531 C 584.039062 130.628906 453.410156 0 292.269531 0 Z M 292.269531 0 " clip-rule="nonzero"/></clipPath><clipPath id="7cfeb68f2f"><rect x="0" width="585" y="0" height="584"/></clipPath><clipPath id="876ed68796"><path d="M 147.160156 164.800781 L 437.804688 164.800781 L 437.804688 418.742188 L 147.160156 418.742188 Z M 147.160156 164.800781 " clip-rule="nonzero"/></clipPath><clipPath id="2e3f4d2c09"><path d="M 292.269531 164.800781 L 437.378906 418.742188 L 147.160156 418.742188 Z M 292.269531 164.800781 " clip-rule="nonzero"/></clipPath><clipPath id="e696374b7a"><path d="M 0.160156 0.800781 L 290.511719 0.800781 L 290.511719 254.742188 L 0.160156 254.742188 Z M 0.160156 0.800781 " clip-rule="nonzero"/></clipPath><clipPath id="5b9d71bc7d"><path d="M 145.269531 0.800781 L 290.378906 254.742188 L 0.160156 254.742188 Z M 145.269531 0.800781 " clip-rule="nonzero"/></clipPath><clipPath id="853f837cd7"><rect x="0" width="291" y="0" height="255"/></clipPath></defs><g clip-path="url(#67abf43a82)"><g clip-path="url(#93b6b0f300)"><g transform="matrix(1, 0, 0, 1, 0, 0.000000000000047631)"><g clip-path="url(#7cfeb68f2f)"><g clip-path="url(#5031622e69)"><g clip-path="url(#b217c98d2b)"><path fill="#000000" d="M 0.5 0 L 584.039062 0 L 584.039062 583.539062 L 0.5 583.539062 Z M 0.5 0 " fill-opacity="1" fill-rule="nonzero"/></g></g></g></g></g></g><g clip-path="url(#876ed68796)"><g clip-path="url(#2e3f4d2c09)"><g transform="matrix(1, 0, 0, 1, 147, 164)"><g clip-path="url(#853f837cd7)"><g clip-path="url(#e696374b7a)"><g clip-path="url(#5b9d71bc7d)"><path fill="#ffffff" d="M 0.160156 0.800781 L 290.804688 0.800781 L 290.804688 254.742188 L 0.160156 254.742188 Z M 0.160156 0.800781 " fill-opacity="1" fill-rule="nonzero"/></g></g></g></g></g></g></svg>